# xmcd
#
# Track frame offsets:
#	150
#	12057
#	24099
#	40460
#	58437
#	75920
#	92292
#	107596
#	122918
#	138239
#
# Disc length: 2020 seconds
#
# Revision: 0
# Processed by: cddbd v1.5.2PL0 Copyright (c) Steve Scherf et al.
# Submitted via: dBpowerAMP V4.0
#
DISCID=6f07e20a
DTITLE=Phil Calkins - Just Hangin' Out
DYEAR=1900
DGENRE=Country
TTITLE0=Daddy's Little Girl
TTITLE1=One Of Those Nights
TTITLE2=Seperate Worlds
TTITLE3=Just Hangin' Out
TTITLE4=I Can't Let You Go
TTITLE5=Compassion Turned To Passion
TTITLE6=A Womans Perogative
TTITLE7=On A Ring And A Prayer
TTITLE8=Reminiscing
TTITLE9=Let It Be A Lesson Learned
EXTD=
EXTT0=
EXTT1=
EXTT2=
EXTT3=
EXTT4=
EXTT5=
EXTT6=
EXTT7=
EXTT8=
EXTT9=
PLAYORDER=
